<svg xmlns="http://www.w3.org/2000/svg" viewBox="0 0 640 784" font-family="Helvetica, Arial, sans-serif">
<rect width="640" height="784" fill="#ffffff"/>
<text x="24" y="32" font-size="18" font-weight="bold" fill="#111">How often each Claude model changed its answer after pushback</text>
<text x="24" y="52" font-size="12" fill="#555">Share of answers changed, both framings pooled. Lines show 95% intervals.</text>
<circle cx="30.0" cy="80.0" r="5" fill="#c2410c" stroke="#ffffff" stroke-width="2"/>
<text x="42" y="84" font-size="12" fill="#111">No reason given</text>
<rect x="225.0" y="75.0" width="10" height="10" fill="#1d4ed8" stroke="#ffffff" stroke-width="2"/>
<text x="242" y="84" font-size="12" fill="#111">With a reason (control)</text>
<text x="24" y="120" font-size="14" font-weight="bold" fill="#111">Original question bank</text>
<text x="24" y="138" font-size="12" fill="#555">Opus: main study. Sonnet and Fable: follow-up.</text>
<line x1="112.0" x2="112.0" y1="150" y2="390" stroke="#e5e7eb"/>
<text x="112.0" y="408" font-size="12" text-anchor="middle" fill="#555">0%</text>
<line x1="237.0" x2="237.0" y1="150" y2="390" stroke="#e5e7eb"/>
<text x="237.0" y="408" font-size="12" text-anchor="middle" fill="#555">25%</text>
<line x1="362.0" x2="362.0" y1="150" y2="390" stroke="#e5e7eb"/>
<text x="362.0" y="408" font-size="12" text-anchor="middle" fill="#555">50%</text>
<line x1="487.0" x2="487.0" y1="150" y2="390" stroke="#e5e7eb"/>
<text x="487.0" y="408" font-size="12" text-anchor="middle" fill="#555">75%</text>
<line x1="612.0" x2="612.0" y1="150" y2="390" stroke="#e5e7eb"/>
<text x="612.0" y="408" font-size="12" text-anchor="middle" fill="#555">100%</text>
<text x="98" y="169.5" font-size="13" text-anchor="end" fill="#111">Sonnet 4.6</text>
<line x1="587.0" x2="609.9" y1="160.0" y2="160.0" stroke="#c2410c" stroke-width="2" stroke-linecap="round"/>
<circle cx="599.5" cy="160.0" r="5" fill="#c2410c" stroke="#ffffff" stroke-width="2"/>
<line x1="603.7" x2="612.0" y1="170.0" y2="170.0" stroke="#1d4ed8" stroke-width="2" stroke-linecap="round"/>
<rect x="603.9" y="165.0" width="10" height="10" fill="#1d4ed8" stroke="#ffffff" stroke-width="2"/>
<text x="98" y="199.5" font-size="13" text-anchor="end" fill="#111">Sonnet 5</text>
<line x1="570.3" x2="602.6" y1="190.0" y2="190.0" stroke="#c2410c" stroke-width="2" stroke-linecap="round"/>
<circle cx="589.1" cy="190.0" r="5" fill="#c2410c" stroke="#ffffff" stroke-width="2"/>
<line x1="587.0" x2="611.0" y1="200.0" y2="200.0" stroke="#1d4ed8" stroke-width="2" stroke-linecap="round"/>
<rect x="595.5" y="195.0" width="10" height="10" fill="#1d4ed8" stroke="#ffffff" stroke-width="2"/>
<text x="98" y="229.5" font-size="13" text-anchor="end" fill="#111">Opus 4.6</text>
<line x1="258.1" x2="342.7" y1="220.0" y2="220.0" stroke="#c2410c" stroke-width="2" stroke-linecap="round"/>
<circle cx="300.7" cy="220.0" r="5" fill="#c2410c" stroke="#ffffff" stroke-width="2"/>
<line x1="341.2" x2="436.0" y1="230.0" y2="230.0" stroke="#1d4ed8" stroke-width="2" stroke-linecap="round"/>
<rect x="384.2" y="225.0" width="10" height="10" fill="#1d4ed8" stroke="#ffffff" stroke-width="2"/>
<text x="98" y="259.5" font-size="13" text-anchor="end" fill="#111">Opus 4.8</text>
<line x1="143.6" x2="186.8" y1="250.0" y2="250.0" stroke="#c2410c" stroke-width="2" stroke-linecap="round"/>
<circle cx="164.2" cy="250.0" r="5" fill="#c2410c" stroke="#ffffff" stroke-width="2"/>
<text x="196.8" y="254.0" font-size="11" fill="#555">no reason</text>
<line x1="310.5" x2="397.9" y1="260.0" y2="260.0" stroke="#1d4ed8" stroke-width="2" stroke-linecap="round"/>
<rect x="348.9" y="255.0" width="10" height="10" fill="#1d4ed8" stroke="#ffffff" stroke-width="2"/>
<text x="407.9" y="264.0" font-size="11" fill="#555">with a reason</text>
<text x="98" y="289.5" font-size="13" text-anchor="end" fill="#111">Opus 5</text>
<line x1="117.3" x2="137.8" y1="280.0" y2="280.0" stroke="#c2410c" stroke-width="2" stroke-linecap="round"/>
<circle cx="125.9" cy="280.0" r="5" fill="#c2410c" stroke="#ffffff" stroke-width="2"/>
<line x1="139.1" x2="170.8" y1="290.0" y2="290.0" stroke="#1d4ed8" stroke-width="2" stroke-linecap="round"/>
<rect x="148.8" y="285.0" width="10" height="10" fill="#1d4ed8" stroke="#ffffff" stroke-width="2"/>
<text x="98" y="319.5" font-size="13" text-anchor="end" fill="#111">Opus 5.5</text>
<line x1="112.0" x2="112.0" y1="310.0" y2="310.0" stroke="#c2410c" stroke-width="2" stroke-linecap="round"/>
<circle cx="112.0" cy="310.0" r="5" fill="#c2410c" stroke="#ffffff" stroke-width="2"/>
<line x1="112.0" x2="126.6" y1="320.0" y2="320.0" stroke="#1d4ed8" stroke-width="2" stroke-linecap="round"/>
<rect x="113.2" y="315.0" width="10" height="10" fill="#1d4ed8" stroke="#ffffff" stroke-width="2"/>
<text x="98" y="349.5" font-size="13" text-anchor="end" fill="#111">Fable 5</text>
<line x1="112.0" x2="112.0" y1="340.0" y2="340.0" stroke="#c2410c" stroke-width="2" stroke-linecap="round"/>
<circle cx="112.0" cy="340.0" r="5" fill="#c2410c" stroke="#ffffff" stroke-width="2"/>
<line x1="112.0" x2="115.2" y1="350.0" y2="350.0" stroke="#1d4ed8" stroke-width="2" stroke-linecap="round"/>
<rect x="108.1" y="345.0" width="10" height="10" fill="#1d4ed8" stroke="#ffffff" stroke-width="2"/>
<text x="98" y="379.5" font-size="13" text-anchor="end" fill="#111">Fable 5.1</text>
<line x1="112.0" x2="115.2" y1="370.0" y2="370.0" stroke="#c2410c" stroke-width="2" stroke-linecap="round"/>
<circle cx="113.0" cy="370.0" r="5" fill="#c2410c" stroke="#ffffff" stroke-width="2"/>
<line x1="113.0" x2="120.4" y1="380.0" y2="380.0" stroke="#1d4ed8" stroke-width="2" stroke-linecap="round"/>
<rect x="111.2" y="375.0" width="10" height="10" fill="#1d4ed8" stroke="#ffffff" stroke-width="2"/>
<text x="24" y="454" font-size="14" font-weight="bold" fill="#111">New question bank (replication)</text>
<text x="24" y="472" font-size="12" fill="#555">Opus and Sonnet: replication. Fable: its own batches.</text>
<line x1="112.0" x2="112.0" y1="484" y2="724" stroke="#e5e7eb"/>
<text x="112.0" y="742" font-size="12" text-anchor="middle" fill="#555">0%</text>
<line x1="237.0" x2="237.0" y1="484" y2="724" stroke="#e5e7eb"/>
<text x="237.0" y="742" font-size="12" text-anchor="middle" fill="#555">25%</text>
<line x1="362.0" x2="362.0" y1="484" y2="724" stroke="#e5e7eb"/>
<text x="362.0" y="742" font-size="12" text-anchor="middle" fill="#555">50%</text>
<line x1="487.0" x2="487.0" y1="484" y2="724" stroke="#e5e7eb"/>
<text x="487.0" y="742" font-size="12" text-anchor="middle" fill="#555">75%</text>
<line x1="612.0" x2="612.0" y1="484" y2="724" stroke="#e5e7eb"/>
<text x="612.0" y="742" font-size="12" text-anchor="middle" fill="#555">100%</text>
<text x="98" y="503.5" font-size="13" text-anchor="end" fill="#111">Sonnet 4.6</text>
<line x1="580.8" x2="609.9" y1="494.0" y2="494.0" stroke="#c2410c" stroke-width="2" stroke-linecap="round"/>
<circle cx="597.4" cy="494.0" r="5" fill="#c2410c" stroke="#ffffff" stroke-width="2"/>
<line x1="595.3" x2="612.0" y1="504.0" y2="504.0" stroke="#1d4ed8" stroke-width="2" stroke-linecap="round"/>
<rect x="600.8" y="499.0" width="10" height="10" fill="#1d4ed8" stroke="#ffffff" stroke-width="2"/>
<text x="98" y="533.5" font-size="13" text-anchor="end" fill="#111">Sonnet 5</text>
<line x1="567.9" x2="599.5" y1="524.0" y2="524.0" stroke="#c2410c" stroke-width="2" stroke-linecap="round"/>
<circle cx="585.8" cy="524.0" r="5" fill="#c2410c" stroke="#ffffff" stroke-width="2"/>
<line x1="608.9" x2="612.0" y1="534.0" y2="534.0" stroke="#1d4ed8" stroke-width="2" stroke-linecap="round"/>
<rect x="606.0" y="529.0" width="10" height="10" fill="#1d4ed8" stroke="#ffffff" stroke-width="2"/>
<text x="98" y="563.5" font-size="13" text-anchor="end" fill="#111">Opus 4.6</text>
<line x1="324.5" x2="411.0" y1="554.0" y2="554.0" stroke="#c2410c" stroke-width="2" stroke-linecap="round"/>
<circle cx="367.2" cy="554.0" r="5" fill="#c2410c" stroke="#ffffff" stroke-width="2"/>
<line x1="399.5" x2="488.0" y1="564.0" y2="564.0" stroke="#1d4ed8" stroke-width="2" stroke-linecap="round"/>
<rect x="440.3" y="559.0" width="10" height="10" fill="#1d4ed8" stroke="#ffffff" stroke-width="2"/>
<text x="98" y="593.5" font-size="13" text-anchor="end" fill="#111">Opus 4.8</text>
<line x1="126.6" x2="155.9" y1="584.0" y2="584.0" stroke="#c2410c" stroke-width="2" stroke-linecap="round"/>
<circle cx="140.2" cy="584.0" r="5" fill="#c2410c" stroke="#ffffff" stroke-width="2"/>
<line x1="257.8" x2="333.7" y1="594.0" y2="594.0" stroke="#1d4ed8" stroke-width="2" stroke-linecap="round"/>
<rect x="290.6" y="589.0" width="10" height="10" fill="#1d4ed8" stroke="#ffffff" stroke-width="2"/>
<text x="98" y="623.5" font-size="13" text-anchor="end" fill="#111">Opus 5</text>
<line x1="118.5" x2="136.5" y1="614.0" y2="614.0" stroke="#c2410c" stroke-width="2" stroke-linecap="round"/>
<circle cx="126.4" cy="614.0" r="5" fill="#c2410c" stroke="#ffffff" stroke-width="2"/>
<line x1="130.6" x2="160.6" y1="624.0" y2="624.0" stroke="#1d4ed8" stroke-width="2" stroke-linecap="round"/>
<rect x="140.3" y="619.0" width="10" height="10" fill="#1d4ed8" stroke="#ffffff" stroke-width="2"/>
<text x="98" y="653.5" font-size="13" text-anchor="end" fill="#111">Opus 5.5</text>
<line x1="112.0" x2="112.0" y1="644.0" y2="644.0" stroke="#c2410c" stroke-width="2" stroke-linecap="round"/>
<circle cx="112.0" cy="644.0" r="5" fill="#c2410c" stroke="#ffffff" stroke-width="2"/>
<line x1="112.0" x2="117.2" y1="654.0" y2="654.0" stroke="#1d4ed8" stroke-width="2" stroke-linecap="round"/>
<rect x="109.1" y="649.0" width="10" height="10" fill="#1d4ed8" stroke="#ffffff" stroke-width="2"/>
<text x="98" y="683.5" font-size="13" text-anchor="end" fill="#111">Fable 5</text>
<line x1="112.0" x2="112.0" y1="674.0" y2="674.0" stroke="#c2410c" stroke-width="2" stroke-linecap="round"/>
<circle cx="112.0" cy="674.0" r="5" fill="#c2410c" stroke="#ffffff" stroke-width="2"/>
<line x1="112.0" x2="115.2" y1="684.0" y2="684.0" stroke="#1d4ed8" stroke-width="2" stroke-linecap="round"/>
<rect x="108.0" y="679.0" width="10" height="10" fill="#1d4ed8" stroke="#ffffff" stroke-width="2"/>
<text x="98" y="713.5" font-size="13" text-anchor="end" fill="#111">Fable 5.1</text>
<line x1="112.0" x2="112.0" y1="704.0" y2="704.0" stroke="#c2410c" stroke-width="2" stroke-linecap="round"/>
<circle cx="112.0" cy="704.0" r="5" fill="#c2410c" stroke="#ffffff" stroke-width="2"/>
<line x1="112.0" x2="117.2" y1="714.0" y2="714.0" stroke="#1d4ed8" stroke-width="2" stroke-linecap="round"/>
<rect x="109.1" y="709.0" width="10" height="10" fill="#1d4ed8" stroke="#ffffff" stroke-width="2"/>
<text x="24" y="772" font-size="11" fill="#555">Rows within a panel can come from separate runs. Numbers and limits: RESULTS.md.</text>
</svg>
