<svg xmlns="http://www.w3.org/2000/svg" viewBox="0 0 720 420" font-family="Helvetica, Arial, sans-serif">
<rect width="720" height="420" fill="#ffffff"/>
<text x="70" y="28" font-size="18" font-weight="bold" fill="#111">How often each Claude model changed its answer</text>
<text x="70" y="48" font-size="12" fill="#555">Share of answers changed after user pushback. Bars show 95% intervals.</text>
<line x1="70" x2="690" y1="350.0" y2="350.0" stroke="#e5e7eb"/>
<text x="60" y="354.0" font-size="11" text-anchor="end" fill="#555">0%</text>
<line x1="70" x2="690" y1="292.0" y2="292.0" stroke="#e5e7eb"/>
<text x="60" y="296.0" font-size="11" text-anchor="end" fill="#555">20%</text>
<line x1="70" x2="690" y1="234.0" y2="234.0" stroke="#e5e7eb"/>
<text x="60" y="238.0" font-size="11" text-anchor="end" fill="#555">40%</text>
<line x1="70" x2="690" y1="176.0" y2="176.0" stroke="#e5e7eb"/>
<text x="60" y="180.0" font-size="11" text-anchor="end" fill="#555">60%</text>
<line x1="70" x2="690" y1="118.0" y2="118.0" stroke="#e5e7eb"/>
<text x="60" y="122.0" font-size="11" text-anchor="end" fill="#555">80%</text>
<line x1="70" x2="690" y1="60.0" y2="60.0" stroke="#e5e7eb"/>
<text x="60" y="64.0" font-size="11" text-anchor="end" fill="#555">100%</text>
<text x="121.7" y="372" font-size="13" text-anchor="middle" fill="#111">Opus 4.6</text>
<text x="225.0" y="372" font-size="13" text-anchor="middle" fill="#111">Opus 4.8</text>
<text x="328.3" y="372" font-size="13" text-anchor="middle" fill="#111">Opus 5</text>
<text x="431.7" y="372" font-size="13" text-anchor="middle" fill="#111">Opus 5.5</text>
<text x="535.0" y="372" font-size="13" text-anchor="middle" fill="#111">Sonnet 4.6</text>
<text x="638.3" y="372" font-size="13" text-anchor="middle" fill="#111">Sonnet 5</text>
<line x1="114.7" x2="114.7" y1="226.8" y2="176.6" stroke="#c2410c" stroke-width="2"/>
<circle cx="114.7" cy="202.0" r="5" fill="#c2410c"/>
<line x1="218.0" x2="218.0" y1="341.5" y2="324.5" stroke="#c2410c" stroke-width="2"/>
<circle cx="218.0" cy="333.6" r="5" fill="#c2410c"/>
<line x1="321.3" x2="321.3" y1="346.2" y2="335.8" stroke="#c2410c" stroke-width="2"/>
<circle cx="321.3" cy="341.7" r="5" fill="#c2410c"/>
<line x1="424.7" x2="424.7" y1="350.0" y2="350.0" stroke="#c2410c" stroke-width="2"/>
<circle cx="424.7" cy="350.0" r="5" fill="#c2410c"/>
<line x1="528.0" x2="528.0" y1="78.1" y2="61.2" stroke="#c2410c" stroke-width="2"/>
<circle cx="528.0" cy="68.5" r="5" fill="#c2410c"/>
<line x1="631.3" x2="631.3" y1="85.6" y2="67.2" stroke="#c2410c" stroke-width="2"/>
<circle cx="631.3" cy="75.2" r="5" fill="#c2410c"/>
<polyline points="114.7,202.0 218.0,333.6 321.3,341.7 424.7,350.0 528.0,68.5 631.3,75.2" fill="none" stroke="#c2410c" stroke-width="1.5" stroke-dasharray="4 3"/>
<circle cx="76" cy="398" r="5" fill="#c2410c"/>
<text x="86" y="402" font-size="12" fill="#111">Pushback with no reason</text>
<line x1="128.7" x2="128.7" y1="183.2" y2="131.9" stroke="#1d4ed8" stroke-width="2"/>
<circle cx="128.7" cy="156.7" r="5" fill="#1d4ed8"/>
<line x1="232.0" x2="232.0" y1="265.4" y2="221.4" stroke="#1d4ed8" stroke-width="2"/>
<circle cx="232.0" cy="243.5" r="5" fill="#1d4ed8"/>
<line x1="335.3" x2="335.3" y1="339.2" y2="321.8" stroke="#1d4ed8" stroke-width="2"/>
<circle cx="335.3" cy="330.7" r="5" fill="#1d4ed8"/>
<line x1="438.7" x2="438.7" y1="350.0" y2="347.0" stroke="#1d4ed8" stroke-width="2"/>
<circle cx="438.7" cy="348.8" r="5" fill="#1d4ed8"/>
<line x1="542.0" x2="542.0" y1="69.7" y2="60.0" stroke="#1d4ed8" stroke-width="2"/>
<circle cx="542.0" cy="63.6" r="5" fill="#1d4ed8"/>
<line x1="645.3" x2="645.3" y1="61.8" y2="60.0" stroke="#1d4ed8" stroke-width="2"/>
<circle cx="645.3" cy="60.6" r="5" fill="#1d4ed8"/>
<polyline points="128.7,156.7 232.0,243.5 335.3,330.7 438.7,348.8 542.0,63.6 645.3,60.6" fill="none" stroke="#1d4ed8" stroke-width="1.5" stroke-dasharray="4 3"/>
<circle cx="376" cy="398" r="5" fill="#1d4ed8"/>
<text x="386" y="402" font-size="12" fill="#111">Pushback with a reason (control)</text>
</svg>